# xmcd CD database file
#
# Track frame offsets:
#	150
#	22683
#	41423
#	62750
#	82865
#	98830
#	116380
#	136495
#	150915
#
# Disc length: 2263 seconds
#
# Revision: 0
# Processed by: cddbd v1.5PL3 Copyright (c) Steve Scherf et al.
# Submitted via: CDex 1.51
#
DISCID=5a08d509
DTITLE=Ben Sidran - The cat and the hat
DYEAR=1979
DGENRE=Jazz
TTITLE0=Hi-fly
TTITLE1=Ask me now
TTITLE2=Like Sonny
TTITLE3=Give it to the kids
TTITLE4=Minority
TTITLE5=Blue Daniel
TTITLE6=Ballin' the jack
TTITLE7=Girl talk
TTITLE8=Seven steps to heaven
EXTD=YEAR: 1979
EXTT0=
EXTT1=
EXTT2=
EXTT3=
EXTT4=
EXTT5=
EXTT6=
EXTT7=
EXTT8=
PLAYORDER=
